PathFileType	4	(X/Y/Z)	c:/Users/goper/Files/vsCode/490R/osim_files/C06/C06_Static_02.trc
DataRate	CameraRate	NumFrames	NumMarkers	Units                	OrigDataRate	OrigDataStartFrame	OrigNumFrames
250.00	250.00	5	36	mm	250.0	514	1368
                Frame#	Time	LPSIS			LASIS			LTH1			LTH2			LTH3			LTH4			LLFE			LMFE			LSH1			LSH2			LSH3			LSH4			LLMAL			LMMAL			LCAL			LMTP5			LTOE			LMTP1			RPSIS			RASIS			RTH1			RTH2			RTH3			RTH4			RLFE			RMFE			RSH1			RSH2			RSH3			RSH4			RLMAL			RMMAL			RCAL			RMTP1			RTOE			RMTP5		
		X1	Y1	Z1	X2	Y2	Z2	X3	Y3	Z3	X4	Y4	Z4	X5	Y5	Z5	X6	Y6	Z6	X7	Y7	Z7	X8	Y8	Z8	X9	Y9	Z9	X10	Y10	Z10	X11	Y11	Z11	X12	Y12	Z12	X13	Y13	Z13	X14	Y14	Z14	X15	Y15	Z15	X16	Y16	Z16	X17	Y17	Z17	X18	Y18	Z18	X19	Y19	Z19	X20	Y20	Z20	X21	Y21	Z21	X22	Y22	Z22	X23	Y23	Z23	X24	Y24	Z24	X25	Y25	Z25	X26	Y26	Z26	X27	Y27	Z27	X28	Y28	Z28	X29	Y29	Z29	X30	Y30	Z30	X31	Y31	Z31	X32	Y32	Z32	X33	Y33	Z33	X34	Y34	Z34	X35	Y35	Z35	X36	Y36	Z36

514	2.05200	-375.96786	1013.41797	462.26276	-206.09680	978.24048	351.59494	-300.16296	793.81860	267.78949	-294.81348	731.63470	258.84323	-226.20242	791.31122	280.82291	-229.91962	730.94934	270.56229	-301.98434	480.68039	268.21799	-309.49109	444.87973	378.62711	-373.97318	375.98410	235.10017	-366.50943	332.79892	230.50371	-309.59842	381.94431	232.99406	-312.33871	338.02225	228.00418	-330.76633	92.06261	237.46198	-322.30219	103.40495	315.17529	-392.42142	65.56038	282.46472	-219.91441	31.93437	202.43906	-167.05553	56.53651	269.52298	-192.25317	37.92928	314.83383	-373.03915	1011.15704	533.84369	-186.30585	972.78632	591.24811	-278.92383	789.47217	689.33539	-271.14380	726.80359	691.46100	-206.47964	790.72742	669.30817	-209.25871	728.04492	675.31866	-290.32318	463.07178	678.17712	-286.41437	460.29980	567.89264	-348.51108	392.89145	708.93921	-346.42511	345.09216	715.80139	-288.39023	385.44601	699.47644	-294.89371	339.82529	706.62836	-323.56256	90.50523	696.13873	-315.78296	105.70423	618.12732	-388.25757	62.23156	656.07660	-184.55515	36.02417	610.48413	-163.83333	54.05838	655.81476	-205.67093	28.13909	723.96149
515	2.05600	-375.95267	1013.41400	462.27557	-206.10947	978.24768	351.60287	-300.19376	793.82269	267.79666	-294.83530	731.64117	258.84619	-226.21446	791.30957	280.83737	-229.93852	730.94965	270.55545	-301.99133	480.66330	268.21896	-309.49820	444.86813	378.62100	-373.96408	375.95197	235.11504	-366.57449	332.87772	230.49069	-309.59955	381.95895	233.00543	-312.42035	337.97488	228.00574	-330.77798	92.06308	237.45172	-322.31644	103.37028	315.18521	-392.44815	65.52873	282.48520	-219.91675	31.93928	202.44679	-166.98410	56.60490	269.44354	-192.25960	37.92308	314.82187	-373.09686	1011.15112	533.86945	-186.33255	972.79755	591.24768	-278.94672	789.45795	689.33875	-271.17288	726.77252	691.46942	-206.49480	790.72308	669.31000	-209.18289	728.00128	675.43604	-290.35242	463.05670	678.19208	-286.42606	460.29459	567.91449	-348.53073	392.86182	708.95221	-346.44550	345.06894	715.79565	-288.40378	385.44354	699.51855	-294.94464	339.82095	706.66815	-323.58514	90.48014	696.13672	-315.80347	105.70531	618.12897	-388.27603	62.19425	656.11981	-184.57550	36.03508	610.48389	-163.85378	54.06522	655.81348	-205.69131	28.12338	723.97107
516	2.06000	-375.97720	1013.38409	462.27942	-206.14056	978.27399	351.59857	-300.22241	793.82764	267.81912	-294.85315	731.64062	258.84756	-226.22853	791.34296	280.80988	-229.95097	730.97125	270.55478	-301.99722	480.68335	268.21481	-309.49155	444.86453	378.62152	-373.97815	375.96405	235.10678	-366.60477	332.85150	230.50015	-309.60617	381.97983	232.99652	-312.39172	338.02194	228.01625	-330.77762	92.06754	237.45534	-322.31329	103.34727	315.17313	-392.44922	65.49892	282.48849	-219.91631	31.97835	202.43164	-166.59016	56.66720	269.08591	-192.26730	37.94088	314.83148	-373.08505	1011.13062	533.85870	-186.33472	972.81921	591.25592	-278.97546	789.43188	689.35309	-271.18491	726.75726	691.47595	-206.50223	790.74146	669.32477	-209.30293	728.05768	675.31879	-290.36536	463.05667	678.18542	-286.40454	460.33536	567.91821	-348.53110	392.83328	708.92969	-346.44812	345.02991	715.79266	-288.41663	385.45554	699.50140	-294.96823	339.83255	706.65924	-323.58307	90.47251	696.13971	-315.82217	105.71781	618.11383	-388.27927	62.17713	656.12640	-184.58711	36.05065	610.46313	-163.84576	54.09241	655.82239	-205.71330	28.14024	723.97906
517	2.06400	-375.96628	1013.36945	462.27823	-206.15546	978.30060	351.60672	-300.23932	793.82489	267.81903	-294.87820	731.64111	258.86951	-226.25697	791.35248	280.81113	-229.97832	730.99072	270.55435	-302.01605	480.69366	268.22711	-309.51895	444.88181	378.63644	-374.00345	375.96414	235.13162	-366.58517	332.87280	230.49934	-309.60004	381.98779	232.98669	-312.38028	338.04169	227.99141	-330.78522	92.07829	237.45932	-322.33090	103.36513	315.16531	-392.44833	65.52346	282.48807	-219.92125	31.98820	202.43944	-167.03650	56.68562	269.49207	-192.27678	37.96136	314.83569	-373.08051	1011.12744	533.86969	-186.31007	972.85248	591.25623	-278.97723	789.43628	689.33112	-271.19235	726.76672	691.45636	-206.51480	790.76654	669.32385	-209.16992	728.06555	675.41608	-290.37677	463.06781	678.18829	-286.41403	460.34778	567.88916	-348.53006	392.83334	708.94250	-346.43518	345.04227	715.78613	-288.42703	385.44931	699.50879	-294.96396	339.84256	706.68390	-323.59616	90.48308	696.10217	-315.82541	105.72545	618.12146	-388.27979	62.21132	656.12097	-184.59874	36.04734	610.47455	-163.85349	54.10811	655.80292	-205.69359	28.16883	723.97540
518	2.06800	-375.98843	1013.37854	462.26254	-206.17374	978.30609	351.60953	-300.26602	793.84473	267.81699	-294.87924	731.65717	258.84427	-226.23906	791.36407	280.83237	-229.96051	731.01624	270.57635	-301.98819	480.70987	268.22531	-309.49054	444.88666	378.60916	-373.97437	375.95697	235.11053	-366.60071	332.94052	230.47549	-309.60452	382.01154	232.99727	-312.40204	338.02884	227.98541	-330.78183	92.08818	237.45377	-322.35608	103.35627	315.16205	-392.45398	65.53366	282.46939	-219.90981	32.01070	202.43449	-166.86696	56.36381	269.27890	-192.26555	37.98698	314.82343	-373.10950	1011.12158	533.84644	-186.34805	972.85992	591.26532	-278.99161	789.44501	689.33044	-271.20105	726.77173	691.44592	-206.50037	790.80933	669.32568	-209.18803	728.08093	675.41687	-290.37595	463.07465	678.17346	-286.42361	460.35730	567.91406	-348.54706	392.81805	708.92188	-346.44891	345.02505	715.75824	-288.40985	385.46725	699.51111	-294.95178	339.86270	706.65576	-323.59109	90.48103	696.11078	-315.83444	105.72602	618.11749	-388.25385	62.22409	656.11389	-184.60370	36.06467	610.45673	-163.85397	54.13217	655.82153	-205.68523	28.19575	723.97937
